<?xml version="1.0" encoding="UTF-8"?>
<svg width="162px" height="59px" viewBox="0 0 162 59" version="1.1" xmlns="http://www.w3.org/2000/svg" xmlns:xlink="http://www.w3.org/1999/xlink">
    <!-- Generator: Sketch 50 (54983) - http://www.bohemiancoding.com/sketch -->
    <title>MAT LOGO</title>
    <desc>Created with Sketch.</desc>
    <defs>
        <polygon id="path-1" points="2.94699248e-20 0.216562577 2.94699248e-20 17.8282436 13.8992376 17.8282436 13.8992376 0.216562577 0 0.216562577"></polygon>
        <path d="M0.073906011,16.5818092 C0.0739061444,16.0012704 0.3698095,15.4359785 0.902416107,15.1144969 C17.4347517,5.14132515 34.7970201,0.0846993865 52.5082953,0.0846993865 C82.6729128,0.0846993865 103.052658,14.5766196 103.90506,15.1934049 C104.365965,15.5265559 104.614549,16.0490317 104.61455,16.5816104 C104.61455,16.8857426 104.533486,17.1931693 104.364604,17.4705153 C103.900711,18.2331718 102.928349,18.5122454 102.129221,18.1111902 C86.8240268,10.4267117 70.3815705,6.52981595 53.257047,6.52981595 C24.0782013,6.52981595 2.82430872,17.9678528 2.61265772,18.0829571 C2.35208054,18.2259325 2.06939597,18.2936196 1.79069799,18.2936196 C1.19633557,18.2936196 0.619731544,17.984865 0.302979866,17.4350429 C0.147801252,17.16584 0.0739059444,16.8719208 0.073906011,16.5818092 Z" id="path-3"></path>
        <linearGradient x1="50%" y1="0%" x2="50%" y2="100%" id="linearGradient-5">
            <stop stop-color="#FFFFFF" offset="0%"></stop>
            <stop stop-color="#000000" offset="100%"></stop>
        </linearGradient>
        <linearGradient x1="0%" y1="109.453153%" x2="100%" y2="109.453154%" id="linearGradient-6">
            <stop stop-color="#2DB0DF" offset="0%"></stop>
            <stop stop-color="#2E74B5" offset="49.3821747%"></stop>
            <stop stop-color="#2F2D83" offset="100%"></stop>
        </linearGradient>
        <path d="M52.5082953,0.0846993865 C34.7970201,0.0846993865 17.4347517,5.14132515 0.902416107,15.1144969 C0.103651007,15.5966319 -0.162724832,16.6271411 0.302979866,17.4350429 C0.619731544,17.984865 1.19633557,18.2936196 1.79069799,18.2936196 C2.06939597,18.2936196 2.35208054,18.2259325 2.61265772,18.0829571 C2.82430872,17.9678528 24.0782013,6.52981595 53.257047,6.52981595 C70.3815705,6.52981595 86.8240268,10.4267117 102.129221,18.1111902 C102.928349,18.5122454 103.900711,18.2331718 104.364604,17.4705153 C104.829221,16.7074969 104.629168,15.7168037 103.90506,15.1934049 C103.052658,14.5766196 82.6729128,0.0846993865 52.5082953,0.0846993865 Z" id="path-7"></path>
    </defs>
    <g id="Symbols" stroke="none" stroke-width="1" fill="none" fill-rule="evenodd">
        <g id="Header_OnDark_stories-Copy" transform="translate(-304.000000, -95.000000)">
            <g id="MAT-LOGO-Reversed" transform="translate(304.000000, 95.000000)">
                <g id="Page-1">
                    <polygon id="Fill-1" fill="#FFFFFF" points="19.4806268 16.6233043 13.4119691 32.1095374 13.3336872 32.1095374 7.25198255 16.6233043 3.94892215 16.6233043 1.81211678 16.6233043 1.81211678 18.2854393 3.94892215 18.6524699 3.94892215 33.667065 1.81211678 34.0340957 1.81211678 35.6832 8.66721745 35.6832 8.66721745 34.0340957 6.53041208 33.667065 6.53041208 28.1435067 6.26874765 20.4322429 6.33398255 20.4192123 12.5077409 35.6832 14.2252309 35.6832 20.3982644 20.4065436 20.4642242 20.4192123 20.2145195 28.1435067 20.2145195 33.667065 18.0784389 34.0340957 18.0784389 35.6832 24.9335396 35.6832 24.9335396 34.0340957 22.7963718 33.667065 22.7963718 18.6524699 24.9335396 18.2854393 24.9335396 16.6233043"></polygon>
                    <polygon id="Fill-2" fill="#FFFFFF" points="27.0175409 34.0342405 29.1539839 33.6668479 29.1539839 23.5481669 27.0175409 23.1811362 27.0175409 21.5190012 31.7365611 21.5190012 31.7365611 33.6668479 33.8726416 34.0342405 33.8726416 35.6833448 27.0175409 35.6833448"></polygon>
                    <g id="Group-42" transform="translate(0.000000, 15.564417)">
                        <path d="M36.6215678,13.2959577 C36.6215678,14.718111 36.9151248,15.8619147 37.499702,16.7259209 C38.0853664,17.590289 38.989957,18.0217491 40.2131114,18.0217491 C40.9825208,18.0217491 41.6287087,17.8483687 42.1531248,17.4987123 C42.6771785,17.1494178 43.1095409,16.6567859 43.4512993,16.0190067 L43.4512993,9.44756503 C43.1182389,8.8539454 42.6855141,8.38303129 42.1531248,8.03337485 C41.6200107,7.68480429 40.9825208,7.50997607 40.2392054,7.50997607 C39.007353,7.50997607 38.0966013,8.02034417 37.5062255,9.04252822 C36.9165745,10.0625405 36.6215678,11.3898595 36.6215678,13.0215896 L36.6215678,13.2959577 Z M43.5814067,18.1531417 C43.1182389,18.799246 42.5532322,19.2878963 41.8845745,19.6190926 C41.2159168,19.9506509 40.4403463,20.1164301 39.5578631,20.1164301 C37.8276886,20.1164301 36.4751517,19.4902337 35.5009772,18.2382031 C34.5268027,16.9861724 34.0397154,15.3388779 34.0397154,13.2959577 L34.0397154,13.0215896 C34.0397154,10.7433933 34.5268027,8.90643006 35.5009772,7.50997607 C36.4751517,6.11424601 37.8363866,5.41529509 39.583957,5.41529509 C40.4233128,5.41529509 41.1633664,5.57093926 41.8052054,5.88077975 C42.4481315,6.19062025 42.9964671,6.63764479 43.4512993,7.22185337 L43.4512993,2.03093926 L41.3141315,1.66427055 L41.3141315,0.00213558282 L43.4512993,0.00213558282 L46.0327893,0.00213558282 L46.0327893,17.8252031 L48.1695946,18.1925957 L48.1695946,19.841338 L43.7912456,19.841338 L43.5814067,18.1531417 Z" id="Fill-3" fill="#FFFFFF"></path>
                        <path d="M62.2143785,12.2749319 L68.2696268,12.2749319 L65.3076,4.09311595 L65.2285933,4.09311595 L62.2143785,12.2749319 Z M56.0924456,18.1926681 L57.5084054,17.9961221 L64.1804859,0.781876687 L66.3959356,0.781876687 L72.9491436,17.9961221 L74.351694,18.1926681 L74.351694,19.8414104 L68.8726872,19.8414104 L68.8726872,18.1926681 L70.3147409,17.9439994 L69.0560698,14.4354902 L61.4148886,14.4354902 L60.1167141,17.9439994 L61.5587678,18.1926681 L61.5587678,19.8414104 L56.0924456,19.8414104 L56.0924456,18.1926681 Z" id="Fill-5" fill="#FFFFFF"></path>
                        <path d="M76.2634752,18.1925595 L78.3999181,17.8251669 L78.3999181,7.70648589 L76.2634752,7.33945521 L76.2634752,5.67732025 L80.720106,5.67732025 L80.8900792,7.52369448 C81.3449114,6.85152883 81.9291262,6.33211166 82.6459852,5.96544294 C83.3624819,5.59877423 84.1931396,5.4152589 85.1372336,5.4152589 C86.0809651,5.4152589 86.8909651,5.63424663 87.5683208,6.07041227 C88.2453141,6.50730184 88.7545087,7.16136933 89.0951799,8.03370061 C89.5409517,7.23050429 90.1306027,6.59381104 90.8648577,6.12217301 C91.5987503,5.65162086 92.4547772,5.4152589 93.4336631,5.4152589 C94.8844148,5.4152589 96.0292872,5.9107865 96.8682805,6.90184172 C97.7069114,7.89144908 98.1269517,9.38128957 98.1269517,11.3717252 L98.1269517,17.8251669 L100.262307,18.1925595 L100.262307,19.8416638 L93.3941597,19.8416638 L93.3941597,18.1925595 L95.5313275,17.8251669 L95.5313275,11.3456638 C95.5313275,9.95029571 95.2910456,8.96105031 94.809757,8.38046135 C94.3295557,7.80095828 93.6177705,7.50993988 92.6740389,7.50993988 C91.7737973,7.50993988 91.0500523,7.82665767 90.5042537,8.45900736 C89.9591799,9.09135706 89.6413409,9.88876196 89.5539987,10.8479644 L89.5539987,17.8251669 L91.6904416,18.1925595 L91.6904416,19.8416638 L84.8353409,19.8416638 L84.8353409,18.1925595 L86.9717839,17.8251669 L86.9717839,11.3456638 C86.9717839,10.0194307 86.7249785,9.04828344 86.2313678,8.43330798 C85.737757,7.81797055 85.0230725,7.50993988 84.0880389,7.50993988 C83.301596,7.50993988 82.6554081,7.67173742 82.1483879,7.99460859 C81.6417302,8.31711779 81.2524953,8.7713816 80.9821329,9.35631411 L80.9821329,17.8251669 L83.1182134,18.1925595 L83.1182134,19.8416638 L76.2634752,19.8416638 L76.2634752,18.1925595 Z" id="Fill-7" fill="#FFFFFF"></path>
                        <path d="M107.416583,7.44409877 C106.551858,7.44409877 105.813616,7.80931963 105.20222,8.53795153 C104.590462,9.26658344 104.213911,10.1809025 104.074019,11.2798227 L104.1012,11.3457 L110.641723,11.3457 L110.641723,11.0047307 C110.641723,9.99304356 110.369911,9.14713558 109.828462,8.46592086 C109.28665,7.7850681 108.482811,7.44409877 107.416583,7.44409877 M107.810529,20.1164301 C105.834636,20.1164301 104.26465,19.4598288 103.098032,18.1466264 C101.93069,16.833062 101.347925,15.1293012 101.347925,13.0346202 L101.347925,12.4583748 C101.347925,10.4422399 101.948448,8.76454049 103.150583,7.42527669 C104.352354,6.08565092 105.77375,5.41529509 107.416583,5.41529509 C109.321442,5.41529509 110.76567,5.99117853 111.748905,7.14403129 C112.731415,8.2954362 113.223213,9.83160798 113.223213,11.7514607 L113.223213,13.361835 L104.021831,13.361835 L103.983052,13.4273503 C104.008784,14.7886939 104.354166,15.907884 105.01775,16.7845589 C105.682059,17.6619577 106.612381,18.101019 107.810529,18.101019 C108.683227,18.101019 109.450824,17.9757798 110.110059,17.727835 C110.770019,17.4784423 111.339374,17.1360252 111.821026,16.6998595 L112.829992,18.376111 C112.322972,18.8636755 111.652502,19.2766755 110.81822,19.6122153 C109.983938,19.9477552 108.980046,20.1164301 107.810529,20.1164301" id="Fill-9" fill="#FFFFFF"></path>
                        <path d="M115.459466,7.33949141 L115.459466,5.67735644 L119.903412,5.67735644 L120.151667,7.73330736 C120.552862,7.00793313 121.049734,6.44146074 121.639748,6.03135644 C122.229399,5.62016626 122.904217,5.41529509 123.665291,5.41529509 C123.865345,5.41529509 124.072647,5.43085951 124.286835,5.46198834 C124.501023,5.49203129 124.664472,5.52496994 124.779358,5.5597184 L124.4376,7.95555276 L122.969815,7.87700675 C122.288472,7.87700675 121.715855,8.03590859 121.25305,8.3544362 C120.789519,8.6729638 120.43109,9.11998834 120.178123,9.69659571 L120.178123,17.8252031 L122.314566,18.1925957 L122.314566,19.8417 L115.459466,19.8417 L115.459466,18.1925957 L117.596271,17.8252031 L117.596271,7.70652209 L115.459466,7.33949141 Z" id="Fill-11" fill="#FFFFFF"></path>
                        <polygon id="Fill-13" fill="#FFFFFF" points="126.561648 18.1925595 128.698454 17.8251669 128.698454 7.70648589 126.561648 7.33945521 126.561648 5.67732025 131.280306 5.67732025 131.280306 17.8251669 133.416749 18.1925595 133.416749 19.8416638 126.561648 19.8416638"></polygon>
                        <path d="M141.446875,18.1009828 C142.301452,18.1009828 143.056365,17.8367497 143.707264,17.3086454 C144.357801,16.7805411 144.683613,16.132265 144.683613,15.3645411 L147.004164,15.3645411 L147.02917,15.4434491 C147.07266,16.6650748 146.529399,17.7491546 145.398298,18.6964123 C144.265748,19.6436699 142.948728,20.1163939 141.446875,20.1163939 C139.383278,20.1163939 137.808942,19.4442282 136.720244,18.1009828 C135.633721,16.7570135 135.088647,15.0680933 135.088647,13.034584 L135.088647,12.484038 C135.088647,10.468265 135.635533,8.78622209 136.727855,7.43827117 C137.819452,6.08995828 139.392701,5.4152589 141.446875,5.4152589 C142.5816,5.4152589 143.602526,5.60384172 144.506392,5.97847362 C145.410983,6.35382945 146.160459,6.86890307 146.754821,7.52369448 L146.872969,10.665535 L144.81517,10.665535 L144.250889,8.43909939 C143.944647,8.14337546 143.55215,7.90266994 143.071949,7.7191546 C142.59066,7.53600123 142.048848,7.44406258 141.446875,7.44406258 C140.091801,7.44406258 139.12415,7.93126503 138.542835,8.90386012 C137.961519,9.87717914 137.671949,11.0705718 137.671949,12.484038 L137.671949,13.034584 C137.671949,14.4831607 137.959707,15.690308 138.536311,16.653854 C139.112915,17.6188479 140.082741,18.1009828 141.446875,18.1009828" id="Fill-15" fill="#FFFFFF"></path>
                        <path d="M154.338125,17.9560528 C155.194877,17.9560528 155.97697,17.7522675 156.685132,17.3410773 C157.39293,16.9316969 157.898863,16.4376172 158.205467,15.8620957 L158.205467,13.5321387 L155.453279,13.5321387 C154.395387,13.5321387 153.558568,13.7761018 152.943185,14.2651141 C152.326353,14.7537644 152.019387,15.347384 152.019387,16.045611 C152.019387,16.665292 152.210742,17.1387399 152.594903,17.4655926 C152.979789,17.7928074 153.561105,17.9560528 154.338125,17.9560528 Z M158.49395,19.841519 C158.414944,19.4574761 158.353695,19.1132491 158.310568,18.8081141 C158.265991,18.5022552 158.23591,18.1967583 158.217789,17.8908994 C157.720554,18.5279546 157.097923,19.0585926 156.350621,19.4817276 C155.602957,19.9048626 154.806004,20.116611 153.958675,20.116611 C152.48183,20.116611 151.359064,19.7568196 150.59038,19.0368748 C149.82097,18.3169301 149.436809,17.3019853 149.436809,15.9927644 C149.436809,14.6487951 149.980434,13.6124945 151.068769,12.8842245 C152.15638,12.1555926 153.648447,11.7903718 155.544246,11.7903718 L158.205467,11.7903718 L158.205467,10.1412675 C158.205467,9.31237178 157.942715,8.65540859 157.419024,8.17110184 C156.89497,7.68715706 156.165064,7.44391779 155.229668,7.44391779 C154.583481,7.44391779 154.013038,7.52716933 153.519427,7.69331043 C153.025454,7.85945153 152.625346,8.08604049 152.320554,8.37452515 L152.045481,9.86617546 L150.053279,9.86617546 L150.053279,7.11706503 C150.698742,6.60235337 151.481561,6.19043926 152.398474,5.88059877 C153.316836,5.57075828 154.312756,5.41511411 155.387319,5.41511411 C156.994635,5.41511411 158.297158,5.82594233 159.29344,6.64651288 C160.289722,7.46672147 160.786957,8.64093006 160.786957,10.1669669 L160.786957,16.9881632 C160.786957,17.1713166 160.788769,17.3504883 160.793481,17.5245926 C160.798554,17.6990589 160.809064,17.8738871 160.827185,18.0487153 L161.875293,18.1924147 L161.875293,19.841519 L158.49395,19.841519 Z" id="Fill-17" fill="#FFFFFF"></path>
                        <g id="Group-21" transform="translate(0.000000, 25.337423)">
                            <mask id="mask-2" fill="white">
                                <use xlink:href="#path-1"></use>
                            </mask>
                            <g id="Clip-20"></g>
                            <polygon id="Fill-19" fill="#FFFFFF" mask="url(#mask-2)" points="5.02076779 3.40364847 -0.000144966443 3.40364847 -0.000144966443 0.216562577 13.8992376 0.216562577 13.8992376 3.40364847 8.87723758 3.40364847 8.87723758 17.8282436 5.02076779 17.8282436"></polygon>
                        </g>
                        <path d="M22.9255007,33.7300828 C24.6817691,33.7300828 25.7943866,32.8175736 25.7943866,31.210819 C25.7943866,29.4078804 24.6078362,28.6673037 22.900494,28.6673037 L19.9098362,28.6673037 L19.9098362,33.7300828 L22.9255007,33.7300828 Z M16.0754738,25.5540583 L23.4209235,25.5540583 C27.0798765,25.5540583 29.5537289,27.6545307 29.5537289,31.1109172 C29.5537289,33.2117515 28.4646685,35.3596411 26.140494,36.2497086 L30.3698899,43.1653773 L26.140494,43.1653773 L22.3318631,36.7676779 L19.9098362,36.7676779 L19.9098362,43.1653773 L16.0754738,43.1653773 L16.0754738,25.5540583 Z" id="Fill-22" fill="#FFFFFF"></path>
                        <path d="M41.7960725,36.5218687 L39.5704752,29.7777706 L39.5211866,29.7777706 L37.270945,36.5218687 L41.7960725,36.5218687 Z M37.7645557,25.5297706 L41.646757,25.5297706 L47.9759919,43.1653411 L43.9698443,43.1653411 L42.785106,39.6333043 L36.2811866,39.6333043 L35.0696295,43.1653411 L31.3595758,43.1653411 L37.7645557,25.5297706 Z" id="Fill-24" fill="#FFFFFF"></path>
                        <polygon id="Fill-26" fill="#FFFFFF" points="49.8830255 25.5540945 53.6169987 25.5540945 60.7866765 36.5219411 60.8381396 36.5219411 60.8381396 25.5540945 64.4731732 25.5540945 64.4731732 43.1654135 60.8131329 43.1654135 53.5434282 31.9760454 53.4934148 31.9760454 53.4934148 43.1654135 49.8830255 43.1654135"></polygon>
                        <path d="M66.5516658,39.6816264 L69.4433839,37.8540742 C70.2102564,39.3359515 71.8918671,40.2998595 73.7970886,40.2998595 C75.3551154,40.2998595 76.9124174,39.7315773 76.9124174,38.298565 C76.9124174,37.1134975 75.9473034,36.6201417 74.7118268,36.2741049 L71.6954376,35.5085528 C69.3455315,34.9152951 67.4910483,33.6795528 67.4910483,30.7154362 C67.4910483,27.4063687 70.3595718,25.259565 74.0188872,25.259565 C77.0363638,25.259565 79.0394376,26.1232092 80.3981356,28.3945282 L77.6292765,30.1978288 C76.8377597,28.888608 75.4268738,28.3710006 73.8963906,28.3710006 C72.5355181,28.3710006 71.2750349,28.9124975 71.2750349,30.2959209 C71.2750349,31.4317613 72.4112094,31.8762521 73.7467128,32.2483503 L76.6659745,32.988927 C78.9644174,33.5582951 80.795706,34.9399086 80.795706,37.8794117 C80.795706,41.4110865 77.605357,43.4355466 73.8463772,43.4355466 C70.6810349,43.4355466 67.8371557,42.3482092 66.5516658,39.6816264" id="Fill-28" fill="#FFFFFF"></path>
                        <path d="M90.3401879,33.7300828 C92.097906,33.7300828 93.2105235,32.8175736 93.2105235,31.210819 C93.2105235,29.4078804 92.0232483,28.6673037 90.3169933,28.6673037 L87.1766577,28.6673037 L87.1766577,33.7300828 L90.3401879,33.7300828 Z M83.3444698,25.5540583 L90.9109933,25.5540583 C94.5692215,25.5540583 96.9684161,27.7033957 96.9684161,31.161592 C96.9684161,33.9284387 95.188953,36.816181 91.0334899,36.816181 L87.1766577,36.816181 L87.1766577,43.1653773 L83.3444698,43.1653773 L83.3444698,25.5540583 Z" id="Fill-30" fill="#FFFFFF"></path>
                        <polygon id="Fill-32" fill="#FFFFFF" points="99.0735826 25.5540945 102.904321 25.5540945 102.904321 39.9294626 111.386307 39.9294626 111.386307 43.1654135 99.0735826 43.1654135"></polygon>
                        <path d="M123.257791,36.5218687 L121.031106,29.7777706 L120.982542,29.7777706 L118.733388,36.5218687 L123.257791,36.5218687 Z M119.226274,25.5297706 L123.108838,25.5297706 L129.43916,43.1653411 L125.433012,43.1653411 L124.246462,39.6333043 L117.74363,39.6333043 L116.532797,43.1653411 L112.822019,43.1653411 L119.226274,25.5297706 Z" id="Fill-34" fill="#FFFFFF"></path>
                        <polygon id="Fill-36" fill="#FFFFFF" points="131.097866 25.5540945 134.832564 25.5540945 142.002604 36.5219411 142.051168 36.5219411 142.051168 25.5540945 145.686201 25.5540945 145.686201 43.1654135 142.027248 43.1654135 134.756456 31.9760454 134.70753 31.9760454 134.70753 43.1654135 131.097866 43.1654135"></polygon>
                        <polygon id="Fill-38" fill="#FFFFFF" points="152.982616 28.7410718 147.963878 28.7410718 147.963878 25.5539859 161.861448 25.5539859 161.861448 28.7410718 156.841623 28.7410718 156.841623 43.1656669 152.982616 43.1656669"></polygon>
                        <path d="M54.9793208,10.8101031 C54.9793208,11.912281 54.0852403,12.8063301 52.9816832,12.8063301 C51.8759517,12.8063301 50.9829584,11.912281 50.9829584,10.8101031 C50.9829584,9.70792515 51.8759517,8.81387607 52.9816832,8.81387607 C54.0852403,8.81387607 54.9793208,9.70792515 54.9793208,10.8101031" id="Fill-40" fill="#FFFFFF"></path>
                    </g>
                    <g id="Group-45" transform="translate(28.630872, 0.277264)">
                        <mask id="mask-4" fill="white">
                            <use xlink:href="#path-3"></use>
                        </mask>
                        <g id="Clip-44"></g>
                        <g id="Fill-43" mask="url(#mask-4)">
                            <use fill="url(#linearGradient-5)" xlink:href="#path-7"></use>
                            <use fill="url(#linearGradient-6)" xlink:href="#path-7"></use>
                        </g>
                    </g>
                </g>
            </g>
        </g>
    </g>
</svg>