<svg xmlns="http://www.w3.org/2000/svg" width="16" height="16"><path fill="#fff" d="M15.176 9.041a7.29 7.29 0 0 0 .076-.998c0-.36-.035-.71-.086-1.056l-2.275-.293a5.039 5.039 0 0 0-.498-1.201l1.396-1.808a7.3 7.3 0 0 0-1.459-1.452l-1.807 1.391a5.058 5.058 0 0 0-1.2-.499L9.031.873C8.693.825 8.354.792 8.002.792S7.308.825 6.97.874l-.291 2.251a5.076 5.076 0 0 0-1.2.499L3.674 2.233a7.3 7.3 0 0 0-1.459 1.452L3.61 5.493a5.076 5.076 0 0 0-.499 1.2l-2.276.294A7.35 7.35 0 0 0 .75 8.043c0 .34.031.671.077.998l2.285.295c.115.426.284.826.499 1.2l-1.417 1.836c.411.55.896 1.038 1.443 1.452l1.842-1.42c.374.215.774.383 1.2.498l.298 2.311c.337.047.677.08 1.025.08s.688-.033 1.021-.08l.299-2.311a5.056 5.056 0 0 0 1.201-.498l1.842 1.42a7.326 7.326 0 0 0 1.443-1.452l-1.416-1.837c.215-.373.383-.773.498-1.199l2.286-.295zm-7.174 1.514a2.54 2.54 0 1 1 0-5.082 2.542 2.542 0 0 1 0 5.082z"/></svg>