<svg viewBox="0 0 1792 1536" xmlns="http://www.w3.org/2000/svg" fill-rule="evenodd" clip-rule="evenodd" stroke-linejoin="round" stroke-miterlimit="1.414"><path d="M896 1535.996c-17.333 0-32-6-44-18l-624-602c-6.667-5.333-15.833-14-27.5-26s-30.167-33.833-55.5-65.5-48-64.167-68-97.5-37.833-73.667-53.5-121C7.833 558.663 0 512.663 0 467.996c0-146.67 42.333-261.33 127-344 84.667-82.67 201.667-124 351-124 41.333 0 83.5 7.17 126.5 21.5s83 33.67 120 58 68.833 47.17 95.5 68.5a920.7 920.7 0 0 1 76 68 920.7 920.7 0 0 1 76-68c26.667-21.33 58.5-44.17 95.5-68.5s77-43.67 120-58c43-14.33 85.17-21.5 126.5-21.5 149.33 0 266.33 41.33 351 124 84.67 82.67 127 197.33 127 344 0 147.333-76.33 297.333-229 450l-623 600c-12 12-26.667 18-44 18" fill="#fff" fill-rule="nonzero"/></svg>