<svg width="17" height="12" viewBox="0 0 17 12" xmlns="http://www.w3.org/2000/svg"><title>Email</title><path d="M15.618 1H1.375A.376.376 0 0 0 1 1.375v9.37c0 .206.169.375.375.375h14.243a.376.376 0 0 0 .375-.375v-9.37A.376.376 0 0 0 15.618 1zm-.9.75L8.496 7.972 2.274 1.75h12.444zM1.75 2.274L5.535 6.06 1.75 9.846V2.274zm.543 8.096L6.06 6.603l2.174 2.174c.15.15.375.15.525 0l2.174-2.174 3.766 3.767H2.293zm12.95-.524L11.457 6.06l3.786-3.786v7.572z" fill="#0BAADB" stroke="#0BAADB" stroke-width=".5"/></svg>