<svg width="23" height="24" viewBox="0 0 23 24" xmlns="http://www.w3.org/2000/svg"><title>Symbols/Icons Copy 4</title><path d="M13.624 3.8c.563 3.349 3.468 5.902 6.976 5.902v7.082a2.363 2.363 0 0 1-2.36 2.361h-7.87l-6.295 4.722v-4.722h-1.18a2.363 2.363 0 0 1-2.362-2.36V6.16A2.363 2.363 0 0 1 2.894 3.8h10.73zM3.334 7.533v1.4h8.4v-1.4h-8.4zm0 3.267v1.4h14v-1.4h-14zm0 3.267v1.4h14v-1.4h-14zm13.537-10.5c-.707-.934-.471-2.334.707-2.8 1.179-.467 1.886.466 2.122.933.235-.467 1.178-1.4 2.357-.933 1.178.466 1.178 1.866.47 2.8-.706.933-2.827 2.8-2.827 2.8s-2.122-1.867-2.829-2.8z" fill="#FFF" fill-rule="evenodd"/></svg>