<svg width="162" height="84" viewBox="0 0 162 84" xmlns="http://www.w3.org/2000/svg" xmlns:xlink="http://www.w3.org/1999/xlink"><title>MAT LOGO</title><defs><path id="a" d="M0 .216v17.575h13.9V.216H0z"/><path d="M.074 16.548c0-.58.296-1.144.828-1.465C17.435 5.131 34.797.085 52.508.085c30.165 0 50.545 14.462 51.397 15.077a1.706 1.706 0 0 1 .46 2.272 1.717 1.717 0 0 1-2.236.64C86.824 10.405 70.382 6.516 53.257 6.516c-29.179 0-50.433 11.415-50.644 11.53a1.715 1.715 0 0 1-2.539-1.498z" id="c"/><linearGradient x1="50%" y1="0%" x2="50%" y2="100%" id="e"><stop stop-color="#FFF" offset="0%"/><stop offset="100%"/></linearGradient><linearGradient x1="0%" y1="109.453%" y2="109.453%" id="g"><stop stop-color="#2DB0DF" offset="0%"/><stop stop-color="#2E74B5" offset="49.382%"/><stop stop-color="#2F2D83" offset="100%"/></linearGradient><path d="M52.508.085C34.797.085 17.435 5.13.902 15.083A1.706 1.706 0 0 0 .303 17.4a1.715 1.715 0 0 0 2.31.647c.211-.115 21.465-11.53 50.644-11.53 17.125 0 33.567 3.89 48.872 11.558.8.4 1.772.122 2.236-.64a1.705 1.705 0 0 0-.46-2.272C103.053 14.547 82.673.085 52.508.085z" id="f"/></defs><g fill="none" fill-rule="evenodd"><path fill="#434448" d="M19.48 16.589l-6.068 15.454h-.078L7.252 16.59h-5.44v1.659l2.137.366v14.984l-2.137.366v1.646h6.855v-1.646l-2.137-.366v-5.513l-.26-7.696.065-.013 6.174 15.233h1.717l6.173-15.246.066.013-.25 7.708v5.513l-2.136.366v1.646h6.856v-1.646l-2.138-.366V18.614l2.138-.366v-1.659zm7.538 17.375l2.136-.367V23.5l-2.136-.367v-1.658h4.719v12.122l2.136.367v1.646h-6.855zm9.604-5.164c0 1.42.293 2.562.878 3.424.585.862 1.49 1.293 2.713 1.293.77 0 1.416-.173 1.94-.522.524-.349.957-.84 1.298-1.477V24.96a3.992 3.992 0 0 0-1.298-1.41c-.533-.349-1.17-.523-1.914-.523-1.232 0-2.142.51-2.733 1.53-.59 1.017-.884 2.342-.884 3.97v.274zm6.96 4.848a4.564 4.564 0 0 1-1.697 1.463c-.67.33-1.445.496-2.327.496-1.73 0-3.083-.625-4.057-1.874-.974-1.25-1.461-2.893-1.461-4.932v-.274c0-2.273.487-4.107 1.461-5.5.974-1.393 2.335-2.09 4.083-2.09.84 0 1.58.155 2.221.464a4.6 4.6 0 0 1 1.646 1.338v-5.18l-2.137-.366v-1.659h4.719v17.787l2.137.366v1.646h-4.38l-.21-1.685zm18.632-5.866h6.056l-2.962-8.165h-.08l-3.014 8.165zm-6.122 5.905l1.416-.196 6.672-17.178h2.216l6.553 17.178 1.403.196v1.646h-5.48v-1.646l1.443-.248-1.259-3.501h-7.641l-1.298 3.501 1.442.248v1.646h-5.467v-1.646zm20.171 0l2.137-.366V23.223l-2.137-.366v-1.66h4.457l.17 1.843a4.638 4.638 0 0 1 1.756-1.555c.716-.365 1.547-.549 2.491-.549.944 0 1.754.219 2.431.654.677.436 1.187 1.089 1.527 1.96a5.251 5.251 0 0 1 1.77-1.908c.734-.47 1.59-.706 2.569-.706 1.45 0 2.595.495 3.434 1.484.839.987 1.259 2.474 1.259 4.46v6.44l2.135.367v1.646h-6.868v-1.646l2.137-.366v-6.466c0-1.393-.24-2.38-.721-2.96-.48-.578-1.192-.868-2.136-.868-.9 0-1.624.316-2.17.947-.545.63-.863 1.427-.95 2.384v6.963l2.136.366v1.646h-6.855v-1.646l2.137-.366v-6.466c0-1.324-.247-2.293-.74-2.907-.494-.614-1.209-.921-2.144-.921-.786 0-1.433.161-1.94.483a3.12 3.12 0 0 0-1.166 1.36v8.45l2.136.367v1.646h-6.855v-1.646zm31.154-10.726c-.865 0-1.603.365-2.215 1.092-.612.727-.988 1.64-1.128 2.736l.027.066h6.54v-.34c0-1.01-.271-1.854-.813-2.534-.541-.68-1.345-1.02-2.411-1.02m.394 12.646c-1.976 0-3.546-.655-4.713-1.965-1.167-1.311-1.75-3.012-1.75-5.102v-.575c0-2.012.6-3.686 1.803-5.023 1.201-1.337 2.623-2.006 4.266-2.006 1.904 0 3.349.575 4.332 1.726.982 1.149 1.474 2.682 1.474 4.598v1.607h-9.201l-.039.065c.026 1.359.371 2.475 1.035 3.35.664.876 1.594 1.314 2.793 1.314.872 0 1.64-.125 2.3-.372a5.353 5.353 0 0 0 1.71-1.026l1.009 1.673c-.507.486-1.177.898-2.012 1.233-.834.335-1.838.503-3.007.503m7.649-12.75v-1.659h4.443l.249 2.052c.4-.724.898-1.29 1.488-1.699.59-.41 1.264-.615 2.025-.615.2 0 .408.016.622.047.214.03.377.063.492.098l-.341 2.39-1.468-.078c-.682 0-1.254.159-1.717.477-.463.317-.822.763-1.075 1.339v8.112l2.137.366v1.646h-6.856v-1.646l2.137-.366V23.223l-2.137-.366zm11.102 10.83l2.136-.366V23.223l-2.136-.366v-1.66h4.718v12.124l2.137.366v1.646h-6.855zm14.885-.091a3.49 3.49 0 0 0 2.26-.79c.65-.528.977-1.175.977-1.94h2.32l.025.078c.044 1.219-.5 2.3-1.63 3.246-1.133.945-2.45 1.417-3.952 1.417-2.064 0-3.638-.67-4.727-2.011-1.086-1.341-1.631-3.027-1.631-5.056v-.55c0-2.011.547-3.69 1.639-5.035 1.091-1.345 2.665-2.019 4.719-2.019 1.135 0 2.156.189 3.06.562.904.375 1.653.89 2.248 1.542l.118 3.136h-2.058l-.564-2.222c-.306-.295-.699-.535-1.18-.718a4.55 4.55 0 0 0-1.624-.275c-1.355 0-2.323.486-2.904 1.457-.581.971-.871 2.162-.871 3.573v.549c0 1.446.288 2.65.864 3.612.577.963 1.547 1.444 2.91 1.444m12.892-.145c.857 0 1.639-.203 2.347-.613.708-.409 1.214-.902 1.52-1.476v-2.325h-2.752c-1.058 0-1.894.243-2.51.731-.617.488-.924 1.08-.924 1.777 0 .618.192 1.09.576 1.417.385.326.966.49 1.743.49zm4.156 1.882a16.1 16.1 0 0 1-.183-1.031c-.045-.306-.075-.61-.093-.916a6.227 6.227 0 0 1-1.867 1.588 4.787 4.787 0 0 1-2.392.633c-1.477 0-2.6-.359-3.369-1.077-.769-.719-1.153-1.731-1.153-3.038 0-1.341.543-2.375 1.632-3.102 1.087-.727 2.58-1.092 4.475-1.092h2.661v-1.645c0-.828-.262-1.483-.786-1.966-.524-.483-1.254-.726-2.19-.726-.646 0-1.216.083-1.71.249-.494.166-.894.392-1.198.68l-.276 1.488h-1.992v-2.743c.646-.514 1.429-.925 2.345-1.234.919-.31 1.915-.465 2.99-.465 1.607 0 2.91.41 3.905 1.23.997.818 1.494 1.99 1.494 3.512v6.807c0 .183.002.362.006.536.006.174.016.348.034.523l1.048.143v1.646h-3.381z"/><g transform="translate(0 40.817)"><mask id="b" fill="#fff"><use xlink:href="#a"/></mask><path fill="#434448" mask="url(#b)" d="M5.02 3.397H0V.217h13.9v3.18H8.876V17.79H5.021z"/></g><path d="M22.926 49.193c1.756 0 2.868-.91 2.868-2.514 0-1.8-1.186-2.538-2.894-2.538h-2.99v5.052h3.016zm-6.85-8.16h7.345c3.659 0 6.133 2.097 6.133 5.546 0 2.097-1.09 4.24-3.414 5.128l4.23 6.902h-4.23l-3.808-6.385H19.91v6.385h-3.835V41.034zm25.72 10.946l-2.226-6.73h-.049l-2.25 6.73h4.525zm-4.031-10.97h3.882l6.329 17.6H43.97l-1.185-3.525h-6.504l-1.211 3.525h-3.71l6.405-17.6zm12.118.025h3.734l7.17 10.945h.051V41.034h3.635v17.575h-3.66l-7.27-11.167h-.05V58.61h-3.61zm16.669 14.098l2.891-1.824c.767 1.48 2.449 2.441 4.354 2.441 1.558 0 3.115-.567 3.115-1.997 0-1.183-.965-1.675-2.2-2.02l-3.017-.764c-2.35-.592-4.204-1.826-4.204-4.784 0-3.302 2.869-5.444 6.528-5.444 3.017 0 5.02.862 6.38 3.128l-2.77 1.8c-.791-1.307-2.202-1.823-3.733-1.823-1.36 0-2.621.54-2.621 1.92 0 1.134 1.136 1.578 2.472 1.95l2.919.738c2.298.568 4.13 1.947 4.13 4.88 0 3.525-3.19 5.545-6.95 5.545-3.165 0-6.009-1.085-7.294-3.746m23.788-5.939c1.758 0 2.87-.91 2.87-2.514 0-1.8-1.187-2.538-2.893-2.538h-3.14v5.052h3.163zm-6.996-8.16h7.567c3.658 0 6.057 2.146 6.057 5.597 0 2.76-1.779 5.643-5.935 5.643h-3.856v6.336h-3.833V41.034zm15.73.001h3.83v14.345h8.482v3.23H99.074zm24.184 10.945l-2.227-6.73h-.048l-2.25 6.73h4.525zm-4.032-10.97h3.883l6.33 17.6h-4.006l-1.187-3.525h-6.502l-1.211 3.525h-3.711l6.404-17.6zm11.872.025h3.735l7.17 10.945h.048V41.034h3.635v17.575h-3.659l-7.27-11.167h-.05V58.61h-3.61zm21.885 3.18h-5.02v-3.18h13.898v3.18h-5.02V58.61h-3.858zM54.98 26.32c0 1.1-.895 1.992-1.998 1.992a1.994 1.994 0 0 1-1.999-1.992c0-1.1.893-1.992 1.999-1.992 1.103 0 1.997.892 1.997 1.992" fill="#434448"/><g transform="translate(28.63 .277)"><mask id="d" fill="#fff"><use xlink:href="#c"/></mask><g mask="url(#d)"><use fill="url(#e)" xlink:href="#f"/><use fill="url(#g)" xlink:href="#f"/></g></g><path d="M39.195 71.145h1.595l-.335 1.737H38.86l.336-1.737zm-.51 2.78h1.596l-1.207 6.843h-1.596l1.207-6.844zm3.406 0h1.556l-.148.842h.054a2.81 2.81 0 0 1 2.118-.976c1.234 0 2.026.815 2.026 1.777 0 .228-.067.589-.108.816l-.777 4.384h-1.596l.697-3.97c.027-.16.08-.454.08-.628 0-.575-.361-.975-1.086-.975-1.073 0-1.569.761-1.743 1.737l-.684 3.836h-1.596l1.207-6.843zm6.222 5.881l.992-.976c.456.454 1.167.815 1.864.815.59 0 1.475-.067 1.475-.856 0-.507-.643-.654-1.314-.881-.979-.321-2.105-.655-2.105-1.872 0-1.497 1.354-2.258 2.883-2.258.966 0 1.797.187 2.48.895l-.965.962c-.389-.347-1.032-.628-1.636-.628-.536 0-1.287.214-1.287.869 0 .267.215.388.563.521.993.374 2.937.749 2.937 2.112 0 1.818-1.582 2.406-3.098 2.406-1.086 0-2.186-.307-2.79-1.11m11.908-1.603l.31-1.711c.013-.08.026-.16.026-.254 0-.749-.617-1.083-1.3-1.083a1.77 1.77 0 0 0-1.744 1.47l-.282 1.604c-.013.08-.027.174-.027.254 0 .749.644 1.097 1.328 1.097.858 0 1.529-.509 1.69-1.377zm-3.82-4.278h1.556l-.148.79h.054c.536-.536 1.314-.923 2.078-.923 1.314 0 2.267.735 2.267 2.099 0 .2-.014.387-.054.588-.094.56-.201 1.122-.295 1.67-.295 1.671-1.583 2.767-3.299 2.767-.63 0-1.26-.28-1.583-.842h-.067l-.59 3.275h-1.595l1.676-9.424zm8.192-2.779h1.596l-.335 1.737h-1.596l.335-1.737zm-.51 2.78h1.596l-1.207 6.843h-1.596l1.207-6.844zm3.406 0h1.556l-.201 1.149h.067c.523-.735 1.65-1.283 2.454-1.283.174 0 .362.013.523.04l-.269 1.457c-.2-.04-.522-.04-.737-.04-1.287 0-2.172.775-2.387 2.018l-.617 3.502h-1.596l1.207-6.843zm9.092 2.767c.027-.174.067-.335.067-.508 0-.696-.496-1.03-1.14-1.03-.858 0-1.435.455-1.662 1.203-.027.107-.068.214-.081.335h2.816zm-4.787 1.99c0-.534.187-1.336.281-1.884.336-1.817 1.838-2.994 3.661-2.994 1.341 0 2.495.669 2.495 2.126 0 .547-.162 1.323-.255 1.87h-4.412c-.04.214-.094.442-.094.656 0 .788.67 1.136 1.381 1.136.993 0 1.864-.428 2.293-.628l.51 1.042c-.59.535-1.837.922-3.125.922-1.408 0-2.735-.668-2.735-2.245zm11.934-.494l.295-1.697c.014-.08.027-.174.027-.254 0-.749-.644-1.096-1.328-1.096-.858 0-1.528.508-1.69 1.377l-.308 1.71a1.48 1.48 0 0 0-.026.254c0 .749.616 1.083 1.3 1.083.859 0 1.583-.508 1.73-1.377m-4.68.642c0-.2.014-.388.054-.589.094-.56.201-1.122.295-1.67.295-1.67 1.435-2.767 3.151-2.767.63 0 1.448.28 1.77.842h.027l.603-3.408h1.596l-1.676 9.53h-1.555l.134-.762h-.04c-.457.494-1.422.922-2.093.922-1.314 0-2.266-.735-2.266-2.098m15.34-.615l.295-1.71c.014-.08.027-.161.027-.255 0-.748-.617-1.083-1.3-1.083-.872 0-1.597.642-1.744 1.484l-.282 1.59c-.013.081-.013.175-.013.254 0 .75.63 1.097 1.314 1.097.858 0 1.556-.508 1.703-1.377m-3.326 1.872h-.067l-.147.68h-1.502l1.69-9.529h1.595l-.617 3.489h.041c.523-.562 1.26-.923 2.038-.923 1.314 0 2.266.735 2.266 2.099 0 .2-.013.387-.053.588-.094.56-.201 1.123-.295 1.671-.309 1.684-1.663 2.766-3.366 2.766-.63 0-1.26-.28-1.583-.841m5.163 3.207l.254-1.363c.296.04.55.067.765.067.416 0 .791-.308.952-.629l.389-.761-1.355-6.683h1.73l.791 4.838h.028l2.36-4.838h1.73l-4.345 7.979c-.59 1.083-1.422 1.484-2.481 1.484-.175 0-.443-.027-.818-.094m10.472-3.729c0-.214.027-.4.067-.615l1.368-7.712h1.596l-1.368 7.699c0 .04-.013.174-.013.227 0 .32.295.36.428.36.255 0 .59-.04.832-.053l-.215 1.203c-.415.107-.804.187-1.246.187-1.006 0-1.449-.56-1.449-1.296m5.565-8.42h1.596l-.335 1.737h-1.597l.336-1.737zm-.51 2.78h1.596l-1.207 6.843h-1.595l1.207-6.844zm3.567 1.243h-.979l.228-1.23h.98l.16-.909c.228-1.297 1.006-1.951 2.307-1.951.255 0 .522.026.777.08l-.228 1.31a4.231 4.231 0 0 0-.59-.04c-.322 0-.603.133-.684.548l-.16.962h1.18l-.228 1.23h-1.18l-1.449 8.1-1.582.173 1.448-8.273zm7.71 1.524c.027-.174.068-.335.068-.508 0-.696-.497-1.03-1.14-1.03-.859 0-1.435.455-1.663 1.203-.027.107-.067.214-.08.335h2.815zm-4.787 1.99c0-.534.188-1.336.281-1.884.336-1.817 1.838-2.994 3.662-2.994 1.34 0 2.494.669 2.494 2.126 0 .547-.161 1.323-.255 1.87h-4.412c-.04.214-.094.442-.094.656 0 .788.67 1.136 1.382 1.136.992 0 1.864-.428 2.293-.628l.51 1.042c-.59.535-1.838.922-3.125.922-1.409 0-2.736-.668-2.736-2.245z" fill="#434448"/></g></svg>