<svg xmlns="http://www.w3.org/2000/svg" viewBox="1032.521 383.365 19.587 15.987"><path d="M1051.478 395.161l-3.239-1.769c.911-3.47-.606-7.258-3.892-9.052-3.866-2.111-8.74-.681-10.851 3.185-2.111 3.866-.68 8.74 3.187 10.851 3.286 1.794 7.292 1.022 9.719-1.621l3.239 1.769a1.21 1.21 0 0 0 1.642-.482l.677-1.239a1.211 1.211 0 0 0-.482-1.642zm-13.898 1.573a6.109 6.109 0 0 1-2.44-8.31 6.11 6.11 0 0 1 8.31-2.44 6.11 6.11 0 0 1 2.44 8.31 6.11 6.11 0 0 1-8.31 2.44z" fill="#d6eeff"/><path d="M1041.145 395.407c-.845.341-1.682.414-2.246.23-.555-.154-.652-.321-.695-.521-.056-.327.314-.875 1.385-2.052.507-.557 1.52-1.916 2.252-3.019 1.469-2.215 1.633-2.334 2.17-1.581.649.91.536 3.189-.355 4.619-.574.921-1.617 1.963-2.511 2.324zm-3.722-.634c-.156-.056-.335-.283-.465-.59-.743-1.749.101-4.585 1.777-5.977 1.236-1.027 3.202-1.461 3.912-.865.48.403.285.817-1.186 2.512-.736.848-1.794 2.267-2.352 3.152-1.067 1.696-1.276 1.915-1.686 1.768z" fill="#bebebe"/></svg>