<svg width="25" height="25" viewBox="0 0 25 25" xmlns="http://www.w3.org/2000/svg"><title>arrow-left-circle</title><path d="M17.531 11.781H9.923l2.962-2.961a.72.72 0 1 0-1.017-1.02l-4.066 4.067a.709.709 0 0 0-.186.633c-.04.223.014.46.186.633l4.066 4.068a.72.72 0 1 0 1.017-1.021l-2.962-2.961h7.608a.72.72 0 0 0 0-1.438zM12.5 22.562c-5.557 0-10.063-4.506-10.063-10.062 0-5.556 4.506-10.063 10.063-10.063S22.563 6.944 22.563 12.5c0 5.556-4.506 10.063-10.063 10.063zM12.5 1C6.15 1 1 6.146 1 12.5S6.15 24 12.5 24 24 18.854 24 12.5 18.85 1 12.5 1z" fill="#0BAADB" stroke="#0BAADB" stroke-width=".75"/></svg>