<svg width="28" height="28" viewBox="0 0 28 28" xmlns="http://www.w3.org/2000/svg"><title>chevron with circle right</title><path d="M15.458 14l-3.357-3.655a.746.746 0 0 1 0-1.047.73.73 0 0 1 1.036 0l4.093 4.177a.745.745 0 0 1 0 1.046l-4.093 4.176a.726.726 0 0 1-1.036 0 .745.745 0 0 1 0-1.045L15.458 14zM14 0c7.732 0 14 6.268 14 14 0 7.734-6.268 14-14 14S0 21.734 0 14C0 6.268 6.268 0 14 0zm0 26.183c6.727 0 12.183-5.454 12.183-12.183S20.727 1.817 14 1.817C7.27 1.817 1.817 7.271 1.817 14 1.816 20.729 7.27 26.183 14 26.183z" fill="#173F7C"/></svg>