<svg width="52" height="47" viewBox="0 0 52 47" xmlns="http://www.w3.org/2000/svg" xmlns:xlink="http://www.w3.org/1999/xlink"><title>Symbols/Icons</title><defs><path d="M50.492 9.432c.085.3.165.603.236.914.295 1.326.318 2.673.27 4.023a30.476 30.476 0 0 1-.27 3.188c-.09.646-.215 1.276-.357 1.899-.013.056-.03.112-.043.168-.028.114-.06.228-.09.342a19.065 19.065 0 0 1-.556 1.748c-.025.062-.045.127-.069.19-.12.312-.25.62-.388.926-.035.079-.074.156-.111.235a2.43 2.43 0 0 0-.072.164c-.025.05-.052.1-.076.15-.054.11-.11.22-.165.328-.022.043-.042.086-.11.216-.033.062-.07.124-.104.187-.057.104-.114.209-.174.312a15.526 15.526 0 0 1-.308.519c-.036.06-.072.12-.11.18-.145.229-.295.458-.451.684-1.166 1.678-2.534 3.18-3.988 4.61-1.88 1.848-3.871 3.576-5.864 5.3-3.516 3.046-7.032 6.09-10.435 9.264-.583.543-1.16 1.088-1.844 1.562-3.515-3.34-7.15-6.544-10.818-9.715-2.227-1.926-4.467-3.84-6.595-5.878a51.69 51.69 0 0 1-.926-.907l-.11-.11c-.099-.099-.193-.202-.334-.347-.158-.164-.318-.328-.493-.514-.057-.062-.117-.122-.175-.185-.091-.097-.177-.2-.268-.3a36.22 36.22 0 0 1-.509-.576c-.061-.07-.125-.139-.185-.21-.129-.152-.251-.311-.376-.467-.147-.179-.294-.356-.436-.539a8.33 8.33 0 0 1-.134-.171C2.477 24.545 1.327 22.262.7 19.723a20.577 20.577 0 0 1-.588-3.69c-.018-.293-.035-.585-.051-.878l-.01-.226a46.57 46.57 0 0 1-.03-.674c-.002-.05-.005-.1-.004-.15a26.34 26.34 0 0 1-.015-1.242C.08 8.179 2.515 3.88 6.74 1.594A13.11 13.11 0 0 1 11.363.12a13.689 13.689 0 0 1 3.463-.017 13.18 13.18 0 0 1 5.184 1.794c2.213 1.323 3.947 3.128 5.314 5.299l.165.266c.354-.51.68-1.014 1.04-1.494 1.516-2.024 3.382-3.634 5.682-4.716A12.792 12.792 0 0 1 36.313.09c2.563-.274 5.036.077 7.357 1.21a13.637 13.637 0 0 1 3.352 2.292 12.115 12.115 0 0 1 .666.677c.195.215.384.435.57.673.184.235.357.478.523.727.036.056.071.113.108.169.126.195.246.394.361.598l.116.205c.135.25.264.503.399.796.124.272.237.551.344.835l.089.245c.075.214.147.432.215.653.026.087.054.175.079.263zm-36.3 11.806v8.427h5.886v-1.548h-4.055v-6.879h-1.831zm6.971 8.427h1.832v-8.427h-1.832v8.427zm3.415-8.427v8.427h1.844v-3.428h3.403v-1.536h-3.403v-1.915h4.042v-1.548h-5.886zm7.03 0v8.427h6.063v-1.548h-4.23v-1.95h3.627v-1.549h-3.627v-1.832h4.194v-1.548h-6.027zm-18.314-6.77v2.624c0 1.998 1.654 2.978 3.498 2.978 1.631 0 3.285-.862 3.285-2.777V15.45H16.39v1.49h1.939v.213c0 .98-.686 1.37-1.525 1.37-.922 0-1.678-.556-1.678-1.489v-2.647c0-1.076.874-1.49 1.654-1.49.709 0 1.56.32 1.56 1.313v.13h1.737v-.284c0-1.914-1.712-2.695-3.332-2.695-1.855 0-3.45 1.076-3.45 3.108zm7.87 5.46h1.83v-8.426h-1.83v8.426zm2.512-8.426l2.73 8.462h1.701l2.765-8.462h-1.719l-1.795 6.075h-.036l-1.786-6.075h-1.86zm7.932 0v8.426h6.063V18.38h-4.23v-1.95h3.627v-1.548H33.44V13.05h4.195v-1.548h-6.027z" id="a"/></defs><use fill="#4A4A4A" xlink:href="#a" transform="translate(.347 .373)" fill-rule="evenodd"/></svg>