<svg width="14" height="13" xmlns="http://www.w3.org/2000/svg" xmlns:xlink="http://www.w3.org/1999/xlink"><defs><path d="M13.771 2.572c.023.082.045.165.065.25.08.361.086.729.073 1.097-.01.291-.033.581-.073.87a6.209 6.209 0 0 1-.098.517c-.003.016-.008.03-.012.046l-.024.093a4.06 4.06 0 0 1-.052.18l-.027.09c-.023.07-.047.139-.073.207l-.019.052a5.23 5.23 0 0 1-.106.253l-.03.064a.663.663 0 0 0-.02.044l-.02.042-.045.089-.03.059-.029.05a4.234 4.234 0 0 1-.131.227l-.03.05c-.04.062-.08.124-.123.186a8.893 8.893 0 0 1-1.088 1.257 33.68 33.68 0 0 1-1.599 1.446c-.959.83-1.918 1.66-2.846 2.526-.159.148-.317.297-.503.426a84.344 84.344 0 0 0-2.95-2.65c-.608-.524-1.219-1.046-1.8-1.602-.083-.08-.166-.161-.252-.248l-.03-.03-.09-.094-.135-.14-.048-.05-.073-.083a9.879 9.879 0 0 1-.139-.157l-.05-.057-.103-.127-.119-.148A5.118 5.118 0 0 1 .191 5.38a5.612 5.612 0 0 1-.16-1.006l-.014-.24c-.002-.02-.002-.04-.003-.061a12.702 12.702 0 0 1-.008-.184c0-.014-.002-.027-.001-.041A7.184 7.184 0 0 1 0 3.508C.02 2.231.686 1.058 1.838.435A3.575 3.575 0 0 1 3.099.032c.315-.04.63-.044.945-.004.505.063.977.228 1.413.489.604.36 1.077.853 1.45 1.445l.045.073c.096-.14.185-.277.283-.408A4.11 4.11 0 0 1 8.785.341 3.489 3.489 0 0 1 9.904.024c.699-.075 1.373.021 2.007.33a3.72 3.72 0 0 1 1.095.81 3.32 3.32 0 0 1 .298.382l.03.046c.034.053.067.107.098.163l.032.056a3.652 3.652 0 0 1 .203.445l.024.067c.02.058.04.117.058.178l.022.071zm-9.9 3.22v2.299h1.605v-.423H4.37V5.792h-.5zm1.901 2.299h.5V5.792h-.5v2.299zm.931-2.299v2.299h.503v-.935h.928v-.42h-.928v-.521H8.31v-.423H6.703zm1.918 0v2.299h1.653v-.423H9.121v-.532h.989v-.422h-.99v-.5h1.145v-.422H8.62zM3.626 3.946v.716c0 .545.45.812.954.812.445 0 .896-.235.896-.757v-.503H4.47v.406H5v.058c0 .267-.187.374-.416.374-.251 0-.458-.152-.458-.406v-.722c0-.294.239-.407.451-.407.194 0 .426.087.426.358v.036h.474v-.078c0-.522-.467-.735-.91-.735-.505 0-.94.294-.94.848zm2.146 1.49h.5v-2.3h-.5v2.3zm.685-2.299l.745 2.308h.464l.754-2.308h-.469l-.49 1.657h-.01l-.486-1.657h-.508zm2.164 0v2.298h1.653v-.422H9.12v-.532h.99V4.06h-.99v-.5h1.145v-.422H8.62z" id="a"/></defs><use fill="#FEFEFE" xlink:href="#a" fill-rule="evenodd"/></svg>