<svg width="50" height="46" viewBox="0 0 50 46" xmlns="http://www.w3.org/2000/svg" xmlns:xlink="http://www.w3.org/1999/xlink"><title>Give Life</title><defs><path d="M49.18 9.187c.084.292.161.587.23.89.288 1.292.31 2.604.264 3.919a29.684 29.684 0 0 1-.263 3.105 22.21 22.21 0 0 1-.348 1.85c-.013.054-.03.108-.042.163-.028.111-.058.222-.088.333-.057.216-.119.43-.184.642a18.527 18.527 0 0 1-.358 1.06l-.066.186a18.69 18.69 0 0 1-.379.902c-.034.077-.072.152-.108.23-.024.052-.049.105-.07.159-.024.049-.05.097-.074.147-.052.106-.106.212-.16.318-.022.042-.042.084-.108.21-.032.061-.068.122-.101.183-.056.101-.111.203-.17.304a15.123 15.123 0 0 1-.3.505l-.106.175c-.142.224-.288.447-.44.666-1.136 1.635-2.468 3.099-3.884 4.49-1.832 1.8-3.771 3.484-5.712 5.164-3.425 2.966-6.85 5.932-10.164 9.023-.568.528-1.13 1.06-1.796 1.521-3.424-3.253-6.965-6.374-10.537-9.462-2.17-1.876-4.35-3.74-6.424-5.725a49.27 49.27 0 0 1-.901-.885c-.036-.035-.073-.07-.108-.106-.096-.097-.188-.197-.326-.339-.154-.16-.31-.319-.479-.5-.056-.06-.114-.119-.17-.18-.09-.095-.174-.195-.262-.292a35.28 35.28 0 0 1-.496-.561c-.06-.07-.121-.136-.18-.205-.125-.148-.244-.303-.367-.455-.142-.174-.285-.346-.423-.525a8.113 8.113 0 0 1-.131-.167c-1.536-2.022-2.657-4.246-3.267-6.72a20.043 20.043 0 0 1-.573-3.593l-.05-.856-.01-.22a45.36 45.36 0 0 1-.029-.656c-.001-.049-.004-.098-.004-.146a27.14 27.14 0 0 1-.014-1.21C.078 7.967 2.45 3.78 6.564 1.553A12.769 12.769 0 0 1 11.068.116 13.333 13.333 0 0 1 14.44.1a12.84 12.84 0 0 1 5.05 1.746c2.155 1.29 3.844 3.047 5.175 5.162.054.085.107.172.161.26.345-.498.661-.988 1.012-1.456 1.478-1.971 3.295-3.54 5.536-4.593A12.46 12.46 0 0 1 35.37.087c2.496-.267 4.905.075 7.166 1.179 1.22.596 2.28 1.319 3.264 2.232a11.8 11.8 0 0 1 .65.66c.19.209.373.423.555.654.179.23.347.466.509.709l.105.164c.123.19.24.384.352.583.037.066.076.132.113.2.131.243.257.49.388.775.121.264.231.537.335.814.03.078.057.158.087.238.074.208.144.42.21.636.025.085.053.17.076.256zm-35.357 11.5v8.207h5.733v-1.508h-3.949v-6.7h-1.784zm6.79 8.207h1.785v-8.207h-1.784v8.207zm3.326-8.207v8.207h1.796v-3.338h3.315V24.06h-3.315v-1.865h3.938v-1.508h-5.734zm6.848 0v8.207h5.906v-1.508h-4.12v-1.9h3.533V23.98h-3.534v-1.784h4.086v-1.508h-5.87zM12.95 14.093v2.555c0 1.946 1.61 2.9 3.407 2.9 1.589 0 3.2-.839 3.2-2.704v-1.796h-3.591v1.45h1.888v.208c0 .956-.669 1.335-1.485 1.335-.899 0-1.635-.541-1.635-1.45v-2.579c0-1.048.851-1.45 1.611-1.45.69 0 1.52.31 1.52 1.277v.127h1.692v-.277c0-1.864-1.668-2.624-3.246-2.624-1.807 0-3.361 1.048-3.361 3.028zm7.665 5.318h1.784v-8.208h-1.784v8.208zm2.447-8.208l2.66 8.243h1.656l2.694-8.243h-1.675l-1.75 5.917h-.034l-1.739-5.917h-1.812zm7.726 0v8.208h5.906v-1.508h-4.121v-1.9h3.534v-1.508h-3.534v-1.784h4.086v-1.508h-5.87z" id="a"/></defs><use fill="#FEFEFE" xlink:href="#a" fill-rule="evenodd"/></svg>