<svg width="52" height="42" xmlns="http://www.w3.org/2000/svg"><g fill="none" fill-rule="evenodd"><path d="M21.933 35.706c-.05 1.229-.102 2.497-.093 3.796v.074h-8.317v-3.519a.921.921 0 0 0-.14-.489c-1.365-2.181-2.996-3.918-4.573-5.598-2.559-2.725-4.973-5.297-5.73-9.35-.571-3.005.527-9.544 1.116-13.057.115-.683.224-1.328.3-1.833.087-.547.261-.815.533-.815h.019c.626.034 1.65.926 1.698 1.921.08 1.638.074 2.836.064 4.493-.003.448-.006.917-.007 1.433v.047l-.045.019a4.291 4.291 0 0 0-.94.547c-1.316 1.019-2.178 3.085-.272 5.556 1.589 2.051 3.163 4.092 4.49 5.813 1.232 1.599 2.297 2.98 2.927 3.788a.925.925 0 0 0 1.296.161.926.926 0 0 0 .16-1.297c-.613-.788-1.63-2.108-2.92-3.78l-.05-.065c-1.318-1.708-2.873-3.725-4.442-5.749-.952-1.234-.972-2.26-.059-2.966a2.6 2.6 0 0 1 .849-.423.98.98 0 0 0 .272-.065c.778-.146 1.44.033 1.784.477.452.586.838 1.212 1.248 1.875 1.11 1.797 2.365 3.828 5.217 5.394 6.037 3.287 5.85 7.843 5.615 13.612m-4.728-15.232c-2.423-1.33-3.446-2.987-4.53-4.74-.418-.676-.848-1.372-1.36-2.038-.592-.762-1.513-1.202-2.594-1.24l-.07-.002.005-1.102c.011-1.69.019-2.91-.065-4.606-.09-1.831-1.727-3.582-3.436-3.674a2.198 2.198 0 0 0-.126-.003c-.98 0-2.08.62-2.357 2.379-.073.471-.173 1.071-.29 1.767l-.007.04c-.652 3.883-1.742 10.38-1.11 13.707.856 4.582 3.571 7.474 6.197 10.271 1.456 1.55 2.961 3.153 4.203 5.075l.011.018v4.173c0 .509.415.924.923.924h10.184a.93.93 0 0 0 .663-.282.93.93 0 0 0 .26-.673c-.054-1.598.01-3.168.073-4.686.241-5.9.47-11.474-6.574-15.308" fill="#FFF"/><path d="M21.933 35.706c-.05 1.229-.102 2.497-.093 3.796v.074h-8.317v-3.519a.921.921 0 0 0-.14-.489c-1.365-2.181-2.996-3.918-4.573-5.598-2.559-2.725-4.973-5.297-5.73-9.35-.571-3.005.527-9.544 1.116-13.057.115-.683.224-1.328.3-1.833.087-.547.261-.815.533-.815h.019c.626.034 1.65.926 1.698 1.921.08 1.638.074 2.836.064 4.493-.003.448-.006.917-.007 1.433v.047l-.045.019a4.291 4.291 0 0 0-.94.547c-1.316 1.019-2.178 3.085-.272 5.556 1.589 2.051 3.163 4.092 4.49 5.813 1.232 1.599 2.297 2.98 2.927 3.788a.925.925 0 0 0 1.296.161.926.926 0 0 0 .16-1.297c-.613-.788-1.63-2.108-2.92-3.78l-.05-.065c-1.318-1.708-2.873-3.725-4.442-5.749-.952-1.234-.972-2.26-.059-2.966a2.6 2.6 0 0 1 .849-.423.98.98 0 0 0 .272-.065c.778-.146 1.44.033 1.784.477.452.586.838 1.212 1.248 1.875 1.11 1.797 2.365 3.828 5.217 5.394 6.037 3.287 5.85 7.843 5.615 13.612zm-4.728-15.232c-2.423-1.33-3.446-2.987-4.53-4.74-.418-.676-.848-1.372-1.36-2.038-.592-.762-1.513-1.202-2.594-1.24l-.07-.002.005-1.102c.011-1.69.019-2.91-.065-4.606-.09-1.831-1.727-3.582-3.436-3.674a2.198 2.198 0 0 0-.126-.003c-.98 0-2.08.62-2.357 2.379-.073.471-.173 1.071-.29 1.767l-.007.04c-.652 3.883-1.742 10.38-1.11 13.707.856 4.582 3.571 7.474 6.197 10.271 1.456 1.55 2.961 3.153 4.203 5.075l.011.018v4.173c0 .509.415.924.923.924h10.184a.93.93 0 0 0 .663-.282.93.93 0 0 0 .26-.673c-.054-1.598.01-3.168.073-4.686.241-5.9.47-11.474-6.574-15.308z" stroke="#FFF"/><path d="M35.478 22.093c2.85-1.557 4.102-3.578 5.206-5.361.419-.676.812-1.31 1.276-1.907.315-.41.922-.6 1.62-.507.837.112 1.57.602 1.824 1.218.325.79-.156 1.668-.617 2.267l-3.866 5.017-.296.382c-1.411 1.83-2.58 3.344-3.236 4.2a.924.924 0 0 0 1.465 1.125c.657-.856 1.824-2.369 3.234-4.197l.272-.352 3.89-5.048c1.446-1.876 1.16-3.372.862-4.097-.352-.854-1.104-1.584-2.062-2.003l-.043-.019v-.047l-.012-1.147v-.025c-.02-1.82-.032-3.022.053-4.757.049-.996 1.08-1.887 1.701-1.919h.023c.27 0 .443.267.526.816.069.429.159.962.262 1.569.608 3.582 1.74 10.242 1.154 13.323-.756 4.05-3.172 6.621-5.728 9.345-1.581 1.684-3.21 3.42-4.574 5.599a.918.918 0 0 0-.141.49v3.517h-8.316v-.073c.01-1.299-.043-2.566-.093-3.792-.237-5.772-.423-10.33 5.616-13.617m-7.13 19.048a.931.931 0 0 0 .664.282h10.183c.51 0 .923-.415.923-.924v-4.173l.011-.018c1.242-1.922 2.748-3.524 4.203-5.074 2.626-2.798 5.342-5.69 6.197-10.268.647-3.406-.477-10.022-1.148-13.973-.102-.601-.191-1.127-.258-1.545-.266-1.76-1.37-2.379-2.354-2.379-.039 0-.076 0-.115.002-1.716.088-3.36 1.84-3.45 3.675-.089 1.79-.075 3.014-.055 4.866l.007.837-.07.003c-1.066.038-2.01.492-2.588 1.244-.522.672-.96 1.38-1.384 2.063-1.08 1.744-2.1 3.39-4.52 4.713-7.047 3.836-6.819 9.41-6.578 15.309.062 1.52.127 3.09.074 4.687a.928.928 0 0 0 .258.673" fill="#FFF"/><path d="M35.478 22.093c2.85-1.557 4.102-3.578 5.206-5.361.419-.676.812-1.31 1.276-1.907.315-.41.922-.6 1.62-.507.837.112 1.57.602 1.824 1.218.325.79-.156 1.668-.617 2.267l-3.866 5.017-.296.382c-1.411 1.83-2.58 3.344-3.236 4.2a.924.924 0 0 0 1.465 1.125c.657-.856 1.824-2.369 3.234-4.197l.272-.352 3.89-5.048c1.446-1.876 1.16-3.372.862-4.097-.352-.854-1.104-1.584-2.062-2.003l-.043-.019v-.047l-.012-1.147v-.025c-.02-1.82-.032-3.022.053-4.757.049-.996 1.08-1.887 1.701-1.919h.023c.27 0 .443.267.526.816.069.429.159.962.262 1.569.608 3.582 1.74 10.242 1.154 13.323-.756 4.05-3.172 6.621-5.728 9.345-1.581 1.684-3.21 3.42-4.574 5.599a.918.918 0 0 0-.141.49v3.517h-8.316v-.073c.01-1.299-.043-2.566-.093-3.792-.237-5.772-.423-10.33 5.616-13.617zm-7.13 19.048a.931.931 0 0 0 .664.282h10.183c.51 0 .923-.415.923-.924v-4.173l.011-.018c1.242-1.922 2.748-3.524 4.203-5.074 2.626-2.798 5.342-5.69 6.197-10.268.647-3.406-.477-10.022-1.148-13.973-.102-.601-.191-1.127-.258-1.545-.266-1.76-1.37-2.379-2.354-2.379-.039 0-.076 0-.115.002-1.716.088-3.36 1.84-3.45 3.675-.089 1.79-.075 3.014-.055 4.866l.007.837-.07.003c-1.066.038-2.01.492-2.588 1.244-.522.672-.96 1.38-1.384 2.063-1.08 1.744-2.1 3.39-4.52 4.713-7.047 3.836-6.819 9.41-6.578 15.309.062 1.52.127 3.09.074 4.687a.928.928 0 0 0 .258.673z" stroke="#FFF"/><path d="M25.942 19.213l-.036.02-.006-.003-.006.003-.036-.02C19.4 15.57 15.916 11.297 16.301 7.49a5.263 5.263 0 0 1 3.707-4.497c1.918-.59 3.854 1.368 5.178 2.943a.92.92 0 0 0 .707.33l.007-.002.007.002c.273 0 .53-.12.707-.33 1.324-1.575 3.26-3.533 5.179-2.943a5.264 5.264 0 0 1 3.706 4.497c.385 3.808-3.098 8.081-9.557 11.724m11.395-11.91a7.107 7.107 0 0 0-5-6.076c-2.288-.704-4.613 1.165-6.382 2.743l-.05.043-.005-.006-.006.006-.048-.043c-1.77-1.578-4.095-3.447-6.383-2.743a7.105 7.105 0 0 0-4.999 6.076c-.279 2.755.777 8.211 10.986 13.796a.92.92 0 0 0 .45.11.92.92 0 0 0 .45-.11c10.209-5.585 11.265-11.04 10.987-13.796" fill="#FFF"/><path d="M25.942 19.213l-.036.02-.006-.003-.006.003-.036-.02C19.4 15.57 15.916 11.297 16.301 7.49a5.263 5.263 0 0 1 3.707-4.497c1.918-.59 3.854 1.368 5.178 2.943a.92.92 0 0 0 .707.33l.007-.002.007.002c.273 0 .53-.12.707-.33 1.324-1.575 3.26-3.533 5.179-2.943a5.264 5.264 0 0 1 3.706 4.497c.385 3.808-3.098 8.081-9.557 11.724zm11.395-11.91a7.107 7.107 0 0 0-5-6.076c-2.288-.704-4.613 1.165-6.382 2.743l-.05.043-.005-.006-.006.006-.048-.043c-1.77-1.578-4.095-3.447-6.383-2.743a7.105 7.105 0 0 0-4.999 6.076c-.279 2.755.777 8.211 10.986 13.796a.92.92 0 0 0 .45.11.92.92 0 0 0 .45-.11c10.209-5.585 11.265-11.04 10.987-13.796z" stroke="#FFF"/></g></svg>