<svg width="50" height="45" viewBox="0 0 50 45" xmlns="http://www.w3.org/2000/svg" xmlns:xlink="http://www.w3.org/1999/xlink"><title>Page 1</title><defs><path id="a" d="M0 .479v19.363h49.625V.48z"/><path id="c" d="M.78.406h31.41v27.257H.78V.406z"/></defs><g fill="none" fill-rule="evenodd"><g transform="translate(0 24.992)"><mask id="b" fill="#fff"><use xlink:href="#a"/></mask><path d="M42.298 13.353c-1.938 1.313-10.332 5.79-13.211 5.79-5.855 0-12.122-3.732-15.29-4.02-2.359-.219-5.749 1.205-7.33 1.946-.427.202-3.216 2.012-4.377 2.773L0 9.403C1.058 8.918 3.596 7.68 4.674 6.49 6.587 4.375 9.484.48 14.953.48c4.455 0 8.328 4.184 12.957 6.616 2.312 1.214 6.101 1.662 6.87 2.045 2.305 1.153-1.138 2.506-2.045 2.675-1.941.37-5.665.58-8.426-.65-4.539-2.025-4.481-1.552-4.481-1.552s1.292 2.193 4.687 3.238c3.937 1.218 7.995.967 10.216.033.815-.341 1.914-1.21 2.251-1.855.47-.89.515-1.613-1.119-2.86-1.156-.881-4.39-1.375-4.39-1.375s6.66-3.15 7.603-2.962c1.522.301.745 1.597.692 1.683.098-.066 3.715-2.563 4.979-1.988 1.765.799.309 2.412.082 2.65.329-.288 3.604-3.049 4.662-1.09 1.07 1.967-4.51 6.452-7.193 8.266" fill="#FEFEFE" mask="url(#b)"/></g><g transform="translate(15.08 .388)"><mask id="d" fill="#fff"><use xlink:href="#c"/></mask><path d="M17.255 7.304S20.468 2.8 25.78 4.006c5.314 1.206 7.076 6.365 6.191 10.263-2.004 8.827-19.338 13.394-19.338 13.394S-.99 15.882.973 7.233C2.127 2.16 6.23-.434 10.99.646c5.325 1.21 6.266 6.657 6.266 6.657" fill="#FEFEFE" mask="url(#d)"/></g></g></svg>