<svg width="50" height="45" xmlns="http://www.w3.org/2000/svg"><path d="M43.571 22.778l-.236.236-2.811-2.811.236-.236c3.025-3.025 3.025-7.947-.001-10.972-3.024-3.025-7.947-3.026-10.972 0l-.235.236-2.812-2.813.235-.236c4.577-4.575 12.021-4.575 16.596 0 4.576 4.576 4.576 12.021 0 16.596zm-4.64-4.64l-.236.235-2.742-2.741.236-.236a1.296 1.296 0 0 0-1.831-1.831l-.236.235-2.741-2.74.235-.237a5.138 5.138 0 0 1 3.658-1.514c1.381 0 2.68.538 3.657 1.514a5.178 5.178 0 0 1 0 7.314zm6.28-13.976c-5.582-5.379-14.583-5.295-20.067.189l-.236.236-.264-.263A14.741 14.741 0 0 0 14.22 0c-3.303 0-6.586 1.119-9.219 3.385C1.933 6.028.16 9.7.01 13.726a14.372 14.372 0 0 0 4.184 10.666L23.992 44.19c.49.49 1.342.49 1.832 0 .245-.245.38-.57.38-.916 0-.345-.135-.671-.38-.916L6.22 22.754c-4.525-4.524-4.743-11.92-.487-16.486a11.646 11.646 0 0 1 8.383-3.738 11.663 11.663 0 0 1 8.506 3.434L42.42 25.763c.49.489 1.342.489 1.832 0l.917-.918c2.78-2.78 4.353-6.647 4.317-10.61-.036-3.873-1.554-7.45-4.275-10.073zM19.847 8.74a7.755 7.755 0 0 0-5.707-2.286 7.754 7.754 0 0 0-5.599 2.56c-2.809 3.084-2.623 7.888.423 10.934l19.635 19.635a1.298 1.298 0 0 0 1.832 0 1.29 1.29 0 0 0 .379-.916c0-.346-.135-.671-.38-.916L10.753 18.073c-2.005-2.006-2.163-5.19-.358-7.247a5.18 5.18 0 0 1 3.759-1.78 5.208 5.208 0 0 1 3.862 1.525L37.813 30.37a1.296 1.296 0 0 0 1.831-1.831L19.847 8.74zm-4.607 4.607a1.297 1.297 0 0 0-2 .204c-.34.506-.25 1.21.214 1.672l19.752 19.753c.49.49 1.343.49 1.831 0 .245-.244.38-.57.38-.915 0-.347-.135-.672-.38-.917L15.24 13.347z" fill="#FFF" fill-rule="evenodd"/></svg>