<svg width="50" height="51" xmlns="http://www.w3.org/2000/svg"><path d="M37.927 45.58a2.59 2.59 0 0 0 2.583-2.578V24.898H9.487v18.104a2.572 2.572 0 0 0 2.582 2.578h5.174V30.06c0-1.424 1.165-2.577 2.561-2.577h10.388c1.414 0 2.562 1.171 2.562 2.577v15.52h5.173zM9.487 24.898H40.51l5.17 5.17v15.517a5.163 5.163 0 0 1-5.155 5.165H9.471a5.148 5.148 0 0 1-5.155-5.165V30.068l5.17-5.17zm12.926 7.755V45.58h5.17V32.653h-5.17zM22.969.67c1.12-.897 2.95-.887 4.056 0l21.796 17.437c1.12.897 1.505 2.668.871 3.935l-.271.546c-.639 1.277-2.068 1.602-3.18.739L24.998 6.804 3.755 23.326c-1.116.869-2.546.527-3.18-.74l-.27-.545c-.64-1.277-.236-3.048.87-3.935L22.971.67h-.002z" fill="#FFF"/></svg>