<svg width="25" height="25" viewBox="0 0 25 25" xmlns="http://www.w3.org/2000/svg"><title>instagram</title><path d="M24.925 7.346a9.174 9.174 0 0 0-.581-3.034 6.128 6.128 0 0 0-1.442-2.214A6.128 6.128 0 0 0 20.688.656a9.174 9.174 0 0 0-3.034-.58C16.32.013 15.894 0 12.5 0 9.105 0 8.68.014 7.346.075a9.174 9.174 0 0 0-3.034.581 6.128 6.128 0 0 0-2.214 1.442A6.128 6.128 0 0 0 .656 4.312a9.174 9.174 0 0 0-.58 3.034C.013 8.68 0 9.106 0 12.5c0 3.395.014 3.82.075 5.154a9.174 9.174 0 0 0 .581 3.034c.314.834.806 1.59 1.442 2.214a6.127 6.127 0 0 0 2.214 1.442c.971.364 1.997.56 3.034.58 1.334.062 1.76.076 5.154.076 3.395 0 3.82-.014 5.154-.075a9.174 9.174 0 0 0 3.034-.581 6.392 6.392 0 0 0 3.656-3.656c.364-.971.56-1.997.58-3.034.062-1.334.076-1.76.076-5.154 0-3.395-.014-3.82-.075-5.154zm-2.25 10.205a6.914 6.914 0 0 1-.43 2.321 4.14 4.14 0 0 1-2.373 2.372 6.915 6.915 0 0 1-2.32.43c-1.319.061-1.714.074-5.052.074-3.338 0-3.733-.013-5.051-.073a6.915 6.915 0 0 1-2.321-.43 3.872 3.872 0 0 1-1.437-.936 3.872 3.872 0 0 1-.935-1.437 6.914 6.914 0 0 1-.43-2.32c-.061-1.319-.074-1.714-.074-5.052 0-3.338.013-3.733.073-5.051.01-.793.155-1.578.43-2.321.2-.543.52-1.034.936-1.437a3.872 3.872 0 0 1 1.437-.935 6.915 6.915 0 0 1 2.32-.43c1.319-.061 1.714-.074 5.052-.074 3.338 0 3.733.013 5.051.073.793.01 1.578.155 2.321.43.543.2 1.034.52 1.437.936.416.403.735.894.935 1.437.276.743.422 1.528.43 2.32.061 1.319.074 1.714.074 5.052 0 3.338-.013 3.733-.073 5.051zM12.5 6.081a6.419 6.419 0 1 0 0 12.838 6.419 6.419 0 0 0 0-12.838zm0 10.586a4.167 4.167 0 1 1 0-8.334 4.167 4.167 0 0 1 0 8.334zm8.173-10.84a1.5 1.5 0 1 1-3 0 1.5 1.5 0 0 1 3 0z" fill="#4A4A4A"/></svg>