<svg width="27" height="24" viewBox="0 0 27 24" xmlns="http://www.w3.org/2000/svg"><title>linkedin black.1</title><path d="M26.4 24h-5.835v-8.437c0-2.208-.912-3.716-2.92-3.716-1.535 0-2.388 1.017-2.786 1.998-.149.352-.125.842-.125 1.332V24h-5.78s.074-14.945 0-16.304h5.78v2.559c.341-1.119 2.188-2.716 5.136-2.716 3.657 0 6.53 2.346 6.53 7.395V24zM3.108 5.657H3.07C1.208 5.657 0 4.41 0 2.83 0 1.22 1.243 0 3.143 0 5.042 0 6.21 1.217 6.246 2.826c0 1.58-1.204 2.83-3.138 2.83zM.666 7.697H5.81V24H.666V7.696z" fill="#4A4A4A"/></svg>