<svg width="15" height="15" xmlns="http://www.w3.org/2000/svg"><path d="M5.17 11.2l-.715.71a1.6 1.6 0 0 1-2.246 0 1.554 1.554 0 0 1 0-2.21l2.63-2.607c.544-.54 1.57-1.337 2.317-.596a.875.875 0 1 0 1.233-1.241c-1.27-1.26-3.147-1.027-4.782.596L.977 8.46A3.281 3.281 0 0 0 0 10.805c0 .888.348 1.72.978 2.345.65.644 1.501.967 2.355.967a3.33 3.33 0 0 0 2.355-.967l.715-.71a.872.872 0 0 0 .005-1.235.878.878 0 0 0-1.238-.006zm7.97-10.133C11.773-.287 9.865-.36 8.604.893l-.89.884a.873.873 0 1 0 1.231 1.24l.891-.883c.653-.65 1.51-.38 2.07.174a1.55 1.55 0 0 1 0 2.209L9.101 7.299c-1.282 1.272-1.884.676-2.141.421a.874.874 0 1 0-1.232 1.24c.59.585 1.262.874 1.966.874.862 0 1.774-.434 2.641-1.294l2.806-2.782c.628-.626.977-1.46.977-2.345 0-.887-.349-1.72-.979-2.346z" fill="#0BAADB"/></svg>