<svg width="50" height="50" xmlns="http://www.w3.org/2000/svg"><g fill="#FEFEFE" fill-rule="evenodd"><path d="M32.53 17.21a4.925 4.925 0 1 0 0-9.85 4.925 4.925 0 0 0 0 9.85m4.01 1.191h-8.02a3.929 3.929 0 0 0-3.928 3.929v1.763c.186.221.377.44.585.65a10.343 10.343 0 0 0 7.358 3.047c2.778 0 5.392-1.083 7.357-3.047.203-.205.392-.42.577-.637V22.33a3.929 3.929 0 0 0-3.929-3.93"/><path d="M42.36 27.21c-5.427 5.426-14.224 5.426-19.65 0-5.427-5.426-5.427-14.225 0-19.65 5.426-5.427 14.223-5.427 19.65 0 5.426 5.425 5.426 14.224 0 19.65m2.468-22.118c-6.79-6.789-17.797-6.789-24.586 0-6.509 6.508-6.76 16.882-.79 23.71l-2.586 2.586-1.474-1.475L.956 44.35a3.262 3.262 0 1 0 4.614 4.614l14.436-14.437-1.474-1.473 2.585-2.586c6.829 5.969 17.203 5.718 23.711-.79 6.788-6.79 6.788-17.796 0-24.586"/></g></svg>