<svg width="39" height="50" viewBox="0 0 39 50" xmlns="http://www.w3.org/2000/svg"><title>Page 1</title><path d="M18.106 9.332L2.558 24.535v-5.122L18.106 4.212v5.12zm0 8.626L2.558 33.16v-5.12l15.548-15.203v5.121zm0 8.626L7.14 37.306l-2.933-2.254 13.899-13.59v5.122zm0 8.624l-6.028 5.895-2.931-2.255 8.959-8.76v5.12zm0 10.528l-4.02-3.09 4.02-3.932v7.022zM2.558 10.79l8.416-8.23h5.236L2.559 15.91v-5.12zm0-8.23h4.831L2.558 7.284V2.56zm18.058 32.93l-.004-.049V2.56H36.16v31.224L20.61 45.736l.004-9.824c.025-.148.026-.29 0-.422zm-.811 13.958a1.114 1.114 0 0 0 .205-.102c.03-.019.054-.033.077-.05l.039-.026 18.05-13.874c.307-.236.49-.608.49-.994V1.307c0-.691-.561-1.253-1.253-1.253H19.711l-.036-.01a1.258 1.258 0 0 0-.656 0l-.072.01h-8.37A1.826 1.826 0 0 0 10.48.05c-.03 0-.059.001-.087.003H1.305C.615.053.052.616.052 1.308V27.21l-.01.036a1.26 1.26 0 0 0 0 .645l.01.07v6.441c0 .387.182.758.49.994l18.053 13.878a.273.273 0 0 1 .034.02c.025.02.053.035.08.053a1.051 1.051 0 0 0 .202.1c.047.018.094.032.141.044l.081.02a1.126 1.126 0 0 0 .51-.015c.07-.017.116-.031.162-.048z" fill="#FFF" fill-rule="evenodd"/></svg>