<svg width="14" height="13" xmlns="http://www.w3.org/2000/svg"><g fill="#4A4A4A" fill-rule="evenodd"><path d="M2.076 7.932a.76.76 0 0 1-.215-.545.76.76 0 0 1 .232-.537l.975-.944a.769.769 0 0 1 1.082.017c.141.146.217.34.214.545a.757.757 0 0 1-.231.537l-.975.944a.767.767 0 0 1-1.082-.017m1.871 1.674a.747.747 0 0 1-.741-.765.75.75 0 0 1 .23-.531l.989-.958a.758.758 0 0 1 1.066.018.74.74 0 0 1 .211.536.75.75 0 0 1-.228.53l-.99.96a.764.764 0 0 1-.537.21m1.343 1.457a.761.761 0 0 1-.752-.777.76.76 0 0 1 .232-.538l.975-.943a.763.763 0 0 1 1.064 1.099l-.975.944a.746.746 0 0 1-.544.215m2.86.272l-.99.958a.755.755 0 0 1-1.066-.017.75.75 0 0 1-.211-.537.747.747 0 0 1 .227-.529l.99-.959a.742.742 0 0 1 .538-.211.75.75 0 0 1 .74.765.748.748 0 0 1-.227.53"/><path d="M12.44 7.687a.74.74 0 0 1-.494.21.65.65 0 0 1-.482-.164L8.54 4.787a.225.225 0 0 0-.387.159c0 .06.024.117.066.16l2.928 2.949c.123.12.193.282.195.455a.64.64 0 0 1-.184.459c-.258.265-.828.299-1.07.064L7.126 6.146a.227.227 0 0 0-.321.003.225.225 0 0 0-.064.162c.001.06.026.117.068.158l2.999 2.924c.123.12.192.282.194.455a.643.643 0 0 1-.183.459l-.106.11c-.247.253-.71.171-.955-.068a.238.238 0 0 0-.016-.015 1.204 1.204 0 0 0-1.273-.739 1.217 1.217 0 0 0-1.34-1.45 1.209 1.209 0 0 0-1.336-1.448A1.21 1.21 0 0 0 3.62 5.24a1.18 1.18 0 0 0-.867.342l-.975.944a1.215 1.215 0 0 0-.2.255l-.575-.642-.031-.033A3.39 3.39 0 0 1 0 3.695a3.39 3.39 0 0 1 1.014-2.407l.278-.275A3.604 3.604 0 0 1 3.77.001a3.339 3.339 0 0 1 2.466.986l.375.339-1.746 1.69c-.21.203-.335.47-.354.754a.99.99 0 0 0 .272.76l.094.097c.193.2.46.309.748.297.284-.008.557-.126.77-.332l1.982-1.978 4.052 4.159a.64.64 0 0 1 .144.211l.01.027a.654.654 0 0 1-.142.676"/><path d="M12.748 6.453L8.54 2.134a.23.23 0 0 0-.158-.068h-.004a.223.223 0 0 0-.16.066L6.078 4.27c-.261.253-.654.272-.876.044l-.094-.098a.538.538 0 0 1-.145-.417.698.698 0 0 1 .217-.456l1.894-1.837.438-.404C8.263.453 9.171.078 10.066.043a3.29 3.29 0 0 1 2.45.93l.275.264c.724.692 1.111 1.547 1.122 2.473.01.925-.365 1.898-1.088 2.827a1.081 1.081 0 0 0-.077-.084"/></g></svg>