<svg width="50" height="45" viewBox="0 0 50 45" xmlns="http://www.w3.org/2000/svg"><title>Together</title><g fill="#FEFEFE" fill-rule="evenodd"><path d="M7.413 28.33a2.714 2.714 0 0 1-.766-1.945 2.715 2.715 0 0 1 .83-1.919l3.48-3.372c.51-.493 1.185-.763 1.946-.763a2.709 2.709 0 0 1 1.918.825 2.71 2.71 0 0 1 .765 1.947c-.01.73-.304 1.41-.826 1.917l-3.482 3.372a2.738 2.738 0 0 1-3.865-.063m6.684 5.981a2.668 2.668 0 0 1-1.89-.815 2.677 2.677 0 0 1-.757-1.917 2.676 2.676 0 0 1 .822-1.897l3.531-3.42c.504-.487 1.167-.755 1.918-.755a2.66 2.66 0 0 1 1.891.817 2.67 2.67 0 0 1 .755 1.915 2.678 2.678 0 0 1-.815 1.892l-3.538 3.427c-.513.497-1.174.744-1.917.753m4.796 5.202a2.719 2.719 0 0 1-2.684-2.773 2.717 2.717 0 0 1 .827-1.921l3.482-3.37a2.72 2.72 0 0 1 1.9-.768 2.726 2.726 0 0 1 2.731 2.774 2.714 2.714 0 0 1-.83 1.917l-3.482 3.374c-.524.506-1.226.796-1.944.767m10.219.972l-3.537 3.423a2.698 2.698 0 0 1-3.81-.06 2.676 2.676 0 0 1-.753-1.919c.01-.721.299-1.392.812-1.89l3.538-3.424a2.649 2.649 0 0 1 1.917-.756 2.676 2.676 0 0 1 1.894.817c.5.513.766 1.194.753 1.917a2.672 2.672 0 0 1-.814 1.892"/><path d="M44.43 27.456c-.437.446-1.079.72-1.762.751-.68.031-1.308-.186-1.721-.587L30.5 17.098a.803.803 0 0 0-.572-.24h-.002a.808.808 0 0 0-.574 1.377L39.81 28.77c.44.43.688 1.007.695 1.625a2.284 2.284 0 0 1-.655 1.64c-.923.948-2.96 1.069-3.824.228l-10.575-10.31a.812.812 0 0 0-1.146.012.802.802 0 0 0-.228.576.8.8 0 0 0 .244.566L35.03 33.55c.44.43.686 1.006.694 1.623a2.293 2.293 0 0 1-.653 1.64l-.382.39c-.88.907-2.532.616-3.408-.238a.849.849 0 0 0-.058-.054 4.301 4.301 0 0 0-4.545-2.638 4.37 4.37 0 0 0-1.136-3.888 4.348 4.348 0 0 0-3.651-1.292 4.317 4.317 0 0 0-1.118-3.896 4.293 4.293 0 0 0-3.655-1.276c.052-.26.08-.524.084-.794a4.322 4.322 0 0 0-1.22-3.096 4.326 4.326 0 0 0-3.053-1.318h-.001c-1.192-.033-2.264.415-3.095 1.221L6.35 23.305a4.34 4.34 0 0 0-.717.91L3.58 21.924l-.11-.119A12.107 12.107 0 0 1 0 13.2a12.107 12.107 0 0 1 3.621-8.598l.993-.981C6.908 1.357 10.132.039 13.462.003c3.39-.063 6.511 1.2 8.806 3.523l1.34 1.21-6.237 6.037a4.122 4.122 0 0 0-1.263 2.691c-.063 1.039.28 2.004.971 2.716l.335.348a3.488 3.488 0 0 0 2.672 1.059c1.015-.03 1.99-.45 2.751-1.187l7.08-7.062 14.47 14.852c.223.217.396.47.516.756l.037.094c.09.244.137.505.141.776.009.618-.223 1.2-.65 1.64"/><path d="M45.533 23.049L30.503 7.623a.822.822 0 0 0-.565-.245h-.015a.798.798 0 0 0-.569.238l-7.65 7.632c-.933.903-2.335.972-3.127.155l-.336-.348c-.372-.383-.555-.911-.517-1.49a2.492 2.492 0 0 1 .773-1.63l6.767-6.561 1.564-1.442C29.513 1.618 32.755.277 35.954.154 39.26.025 42.293 1.176 44.7 3.475l.987.944c2.583 2.47 3.968 5.524 4.006 8.832.036 3.303-1.305 6.78-3.887 10.096a3.861 3.861 0 0 0-.273-.298"/></g></svg>