<?xml version="1.0" encoding="UTF-8"?>
<svg width="17px" height="13px" viewBox="0 0 17 13" version="1.1" xmlns="http://www.w3.org/2000/svg" xmlns:xlink="http://www.w3.org/1999/xlink">
    <!-- Generator: Sketch 50.2 (55047) - http://www.bohemiancoding.com/sketch -->
    <title>Shape</title>
    <desc>Created with Sketch.</desc>
    <defs></defs>
    <g id="Pages" stroke="none" stroke-width="1" fill="none" fill-rule="evenodd">
        <g id="MAT_SubPage_NewsDetail_opt1" transform="translate(-1418.000000, -219.000000)" fill="#0BAADB" fill-rule="nonzero">
            <g id="Article-UI" transform="translate(0.000000, 186.000000)">
                <g id="Share" transform="translate(969.000000, 24.000000)">
                    <path d="M466,10.7035464 L464.178571,10.9890988 L465.392857,9.56133672 L463.267857,10.1324416 C460.535714,7.27691738 456.285714,10.417994 457.5,12.9879657 C452.642857,12.9879657 450.214286,9.56133672 450.214286,9.56133672 C450.214286,9.56133672 448.392857,12.1313085 451.428571,14.1301754 L449.607143,13.5590706 C449.607143,15.2723851 450.821429,16.4145947 452.946429,16.9856996 L450.821429,16.9856996 C452.035714,19.2701189 454.160714,19.2701189 454.160714,19.2701189 C454.160714,19.2701189 452.339286,20.697881 449,20.697881 C459.017857,25.2667197 465.089286,16.7001471 464.178571,12.1313085 L466,10.7035464 Z" id="Shape"></path>
                </g>
            </g>
        </g>
    </g>
</svg>