<svg width="49" height="39" xmlns="http://www.w3.org/2000/svg"><g fill="#FFF"><path d="M17.826 21.667c-1.522 0-3.26-.434-4.565-1.3C10.435 18.417 8.696 14.3 8.696 9.1c0-4.983 4.13-9.1 9.13-9.1 5 0 9.13 4.117 9.13 9.1 0 5.2-1.739 9.317-4.782 11.267-1.087.866-2.826 1.3-4.348 1.3zm0-17.334c-2.609 0-4.783 2.167-4.783 4.767 0 3.683 1.087 6.5 2.827 7.583 1.304.867 2.826.867 4.13 0 1.74-1.083 2.826-3.9 2.826-7.583-.217-2.6-2.391-4.767-5-4.767z"/><path d="M17.826 39C13.696 39 0 38.567 0 31.633c0-7.366 6.087-9.316 10.217-10.616.435-.217 1.522-.434 2.174-3.034l4.348.867c-.87 4.117-3.043 5.633-5 6.283-5.87 1.734-7.391 3.25-7.391 6.5 0 1.3 6.304 3.034 13.478 3.034 7.174 0 13.478-1.734 13.478-3.034 0-3.25-1.521-4.766-7.174-6.716-1.739-.65-4.13-2.167-5-6.284l4.348-.866c.435 2.383 1.74 2.816 1.957 3.033 4.13 1.3 10.217 3.467 10.217 10.617S21.957 39 17.826 39zm16.957-17.767c-1.305 0-2.392-.433-3.479-1.083-2.174-1.517-3.478-4.333-3.478-8.233 0-3.9 3.044-6.934 6.957-6.934s6.956 3.034 6.956 6.934c0 3.9-1.304 6.933-3.478 8.45-1.087.433-2.174.866-3.478.866zm0-12.133c-1.522 0-2.61 1.083-2.61 2.6 0 2.383.653 4.117 1.523 4.767.652.433 1.521.433 1.956 0 1.087-.65 1.74-2.384 1.74-4.767 0-1.3-1.088-2.6-2.61-2.6z"/><path d="M27.174 25.133l-2.609-3.466c1.305-1.084 2.826-1.734 4.783-2.167.217 0 .652-.217.87-1.517l4.347.867c-.435 2.383-1.739 4.117-3.913 4.767-1.304.216-2.609.866-3.478 1.516zm7.609 8.017H33.26l.217-4.333h1.305c3.695 0 7.826-.867 8.695-1.517 0-1.733-.87-2.6-4.565-3.9-1.956-.65-3.478-2.383-3.913-4.767l4.348-.866c.217 1.3.87 1.516 1.087 1.516 2.826.867 7.608 2.384 7.608 8.017-.217 5.417-9.347 5.85-13.26 5.85z"/></g></svg>