<svg width="25" height="22" viewBox="0 0 25 22" xmlns="http://www.w3.org/2000/svg"><title>vimeo black.1</title><path d="M24.983 4.936c-.11 2.406-1.811 5.695-5.094 9.87-3.398 4.363-6.277 6.544-8.63 6.544-1.455 0-2.688-1.327-3.695-3.989-.674-2.442-1.344-4.885-2.018-7.32-.75-2.664-1.551-3.995-2.41-3.995-.186 0-.837.389-1.96 1.167L0 5.713A335.455 335.455 0 0 0 3.643 2.5C5.283 1.094 6.516.357 7.34.28c1.94-.187 3.137 1.127 3.588 3.936.48 3.033.818 4.919 1.005 5.658.561 2.513 1.176 3.767 1.849 3.767.522 0 1.306-.811 2.353-2.436 1.046-1.628 1.603-2.865 1.68-3.717.15-1.405-.41-2.104-1.68-2.104-.598 0-1.216.125-1.849.387 1.234-3.955 3.586-5.878 7.06-5.766 2.574.07 3.789 1.718 3.638 4.931" fill="#4A4A4A"/></svg>