<svg width="42" height="50" viewBox="0 0 42 50" xmlns="http://www.w3.org/2000/svg" xmlns:xlink="http://www.w3.org/1999/xlink"><title>Page 1</title><defs><path id="a" d="M12.729.523v7.84H.139V.523h12.59z"/></defs><g fill="none" fill-rule="evenodd"><path d="M27.286 9.811a4.906 4.906 0 1 0 0-9.812 4.906 4.906 0 0 0 0 9.812m-7.38 21.359c-1.591-.35-2.759-1.441-2.94-2.623l-4.018 4.637-10.303.614c-1.55.093-2.731 1.408-2.64 2.936.092 1.529 1.422 2.691 2.972 2.599l11.888-.714c.498-.03.94-.275 1.267-.653l.02-.02 5.02-5.794-1.115-.949-.151-.033z" fill="#FEFEFE"/><g transform="translate(28.571 13.206)"><mask id="b" fill="#fff"><use xlink:href="#a"/></mask><path d="M12.697 4.558c-.195-1.187-1.228-2.004-2.306-1.827L4.077 3.767 1.287.523c-.009.081-.02.162-.038.244L.139 5.82c1.104 1.267 1.994 2.279 2.04 2.307.263.185.562.273.863.223l8.053-1.324c1.08-.176 1.797-1.282 1.602-2.467" fill="#FEFEFE" mask="url(#b)"/></g><path d="M32.929 33.784l-6.922-5.886 3.147-14.314c.318-1.444-.989-2.957-2.918-3.382l-1.274-.279a4.723 4.723 0 0 0-.99-.111h-.023c-.374 0-.733.047-1.066.136-2.4.326-8.723 1.19-8.832 1.244-.298.118-.536.32-.659.6 0 0-3.29 7.459-3.295 7.467-.44 1 .093 2.204 1.192 2.69 1.1.485 2.349.068 2.79-.933.004-.006 1.617-3.66 2.585-5.853l3.588-.476-2.739 12.456c-.317 1.444.989 2.957 2.92 3.382l.15.033 7.177 6.103-1.622 9.79c-.253 1.532.766 2.977 2.277 3.226 1.51.25 2.94-.79 3.193-2.32.01-.053 1.964-11.95 1.963-12.048.015-.588-.198-1.146-.642-1.525" fill="#FEFEFE"/></g></svg>